<svg xmlns="http://www.w3.org/2000/svg" width="448.25" height="448.147" viewBox="0 0 448.25 448.147"><path d="M224.18,109.18a114.9,114.9,0,1,0,114.9,114.9,114.718,114.718,0,0,0-114.9-114.9Zm0,189.6a74.7,74.7,0,1,1,74.7-74.7,74.836,74.836,0,0,1-74.7,74.7h0Zm146.39-194.3a26.8,26.8,0,1,1-26.8-26.8,26.738,26.738,0,0,1,26.8,26.8Zm76.1,27.2c-1.7-35.9-9.9-67.7-36.2-93.9-26.2-26.2-58-34.41-93.9-36.2-37-2.11-147.89-2.11-184.89,0-35.8,1.7-67.6,9.9-93.9,36.1s-34.41,58-36.21,93.89c-2.1,37-2.1,147.9,0,184.9,1.7,35.9,9.9,67.7,36.2,93.9s58,34.4,93.9,36.2c37,2.1,147.9,2.1,184.9,0,35.9-1.7,67.7-9.9,93.9-36.2,26.2-26.2,34.4-58,36.2-93.9,2.1-37,2.1-147.8,0-184.8h0Zm-47.8,224.5a75.627,75.627,0,0,1-42.6,42.6c-29.5,11.7-99.5,9-132.1,9s-102.7,2.6-132.1-9a75.627,75.627,0,0,1-42.6-42.6c-11.7-29.5-9-99.5-9-132.1s-2.6-102.7,9-132.1a75.628,75.628,0,0,1,42.6-42.6c29.5-11.7,99.5-9,132.1-9s102.7-2.6,132.1,9a75.628,75.628,0,0,1,42.6,42.6c11.7,29.5,9,99.5,9,132.1S410.57,326.78,398.87,356.18Z" transform="translate(0.005 0.002)" fill="#ac27eb"/></svg>