<svg xmlns="http://www.w3.org/2000/svg" width="148.144" height="100.368" viewBox="0 0 148.144 100.368"><g transform="translate(0 0.008)"><path d="M19.5,50.557c-1.986-8.215-3.882-16.068-5.886-24.373C20,27.376,25.98,28.5,32.028,29.615c.361,1.751.65,3.232,1.155,5.687,3.358-7.24,8.178-1.7,12.313-2.708-.144-.921-.307-1.842-.487-2.943.6.054,1.137.09,1.679.162C57.5,31.24,68.334,32.684,79.582,34.182c.506-1.679,1.011-3.394,1.625-5.452,5.506,2.816,10.959,5.6,16.628,8.485-1.065,1.643-1.95,3.033-3.123,4.838,2.762.4,5.091.74,7.763,1.137,2.13-7.6,5.579-14.208,13.215-18.848-3.033-4.911-5.958-9.659-9.009-14.588-1.462.812-2.221,1.155-2.871,1.625-2.744,1.968-5.416,1.787-7.817-.451-2.2-2.058-2.961-4.658-1.228-7.348C96.534.819,99.333-.86,102.474.44c3.5,1.462,7.222,3.214,9.821,5.849,4.459,4.5,8.846,6.608,15.183,2.654-.253.343,0,.144.054-.108.939-5.29,3.773-7.8,7.8-6.9,4.008.9,5.561,4.477,3.936,9.677-1.1,3.521-2.546,6.951-3.827,10.453,11.428,6.084,15.6,20.184,10.652,34.429-1.589,4.568-4.189,10.291-2.726,14.118,2.816,7.312-1.408,12.511-3.051,18.271-2.221,7.781-7.619,8.558-12.854,3.376-2.925,0-5.4.487-7.6-.072-21.015-5.47-42.048-4.893-63.116-.542C51.706,92.7,46.724,94,41.542,95.223c-.993-1.444-2.04-2.943-3.394-4.893-4.369,8.937-11.464,11.428-20.419,9.334-4.17-.975-7.167-4.947-7.583-9.912-.83-10.2,5.6-15.256,14.01-18.921-.162-4.694-1.553-7.944-6.68-9.316C11.916,60.018,6.59,57.616,0,55.2c7.276-1.733,13.324-3.159,19.5-4.64ZM126.5,23.242c.2-1.733.415-3.466.686-5.651-.975,1.39-1.625,2.347-2.491,3.575-.65-1.155-1.047-1.86-1.48-2.6-.2,1.047-.4,2.04-.6,3-4.008-4.8-7.89-9.442-11.771-14.082-.072.108-.144.235-.217.343q4.55,8.124,9.117,16.339c2.112-.307,4.5-.668,6.879-1.011-1.155.524-2.293,1.137-3.484,1.571a25.382,25.382,0,0,0-15.833,15.815c-4.1,11.1,2.112,20.834,13.938,21.466,2.546.126,6.229.018,7.565-1.535,4.026-4.712,9.063-5.308,14.479-5.236,7.185-15.635-.433-30.06-16.808-31.955ZM68.858,58.3C65.9,64.712,63.514,69.839,61.04,75.147c-1.282-.83-2.166-1.39-2.943-1.9-.812,5.127-1.607,10-2.419,15.075,2.925.217,5.236-.325,6.1-3.719a46.742,46.742,0,0,1,2-5.2c1.589-4.134,3.105-8.3,4.8-12.385.307-.74,1.318-1.246,2.112-1.643.144-.072,1.264,1.029,1.174,1.354-1.3,4.315-2.582,8.648-4.243,12.836-.885,2.221-2.455,4.17-3.918,6.59,4.279,1.083,6.77.83,7.51-3.34.469-2.654,1.571-5.181,2.221-7.817,1.228-5.073,2.076-5.488,7.691-2.961-2.618,4.17-5.181,8.233-8.178,13.017,2.509,0,3.773-.072,5.019,0,3.719.253,5.47-1.119,5.344-5.145-.09-2.528.867-5.091,1.408-7.89,2.094.686,3.43,1.119,4.965,1.625.975-2.491,1.878-4.8,2.853-7.294-2.2.975-4.044,1.787-5.9,2.618-.343-.487-.686-.975-1.011-1.48,4.152-4.532,8.323-9.063,12.764-13.92-4.243-1.228-8.034-2.311-11.843-3.412a33.451,33.451,0,0,1,9.46.74c4.766.83,5.308.379,5.831-4.983-3.9-.506-7.781-1.011-12.2-1.571,1.444-2.437,2.564-4.315,3.882-6.517C90.378,36.259,87.543,34.85,84.4,33.3c-.867,4.586-1.661,8.5-2.329,12.439-.686,4.044-1.264,8.088-1.878,12.15.325.289.65.56.975.849,1.318-1.192,2.618-2.4,4.1-3.755,1.408.379,2.961.812,4.64,1.282-2.112,2.654-4.5,4.73-5.687,7.366-1.9,4.189-4.622,4.333-8.269,3.105-.433-3.286,2.2-7.33-2.69-9.316h4.622a54.167,54.167,0,0,0,.614-7.673c-.162-2.69-1.065-5.326-1.426-8.016a39.185,39.185,0,0,1-.036-5.055c-2.69-.415-4.875-.74-7.8-1.192.379,3.557.867,6.481.939,9.406.018,1.318-.415,3.286-1.336,3.882-6.481,4.225-6.554,4.134-5.163,10.959.036.2.361.343.668.614,1.065-.487,2.185-.993,4.513-2.076ZM45.965,83.379c-2.491-3.791-4.243-6.716-6.265-9.442-.74-.993-2.166-2.2-3.232-2.148-7.167.379-13.883,2.293-19.029,7.637C13.992,83,13.4,89.662,15.887,93.381c2.239,3.34,8.377,4.875,12.89,2.636a16.052,16.052,0,0,0,5.922-5.29c1.589-2.383,2.275-5.362,3.575-8.63a45.27,45.27,0,0,0,3.394,5.091c1.264,1.426,3.051,3.629,4.405,3.484,2.925-.307,6.554-.776,7.149-4.838.524-3.5,1.354-7.077,1.1-10.543-.181-2.618-1.841-5.145-2.853-7.709-.4.126-.812.253-1.21.379-1.336,4.766-2.672,9.532-4.315,15.4Zm-33.183-27.8c2.239.921,3.521,1.787,4.857,1.95,6.626.83,10.8,3.773,10.85,11.067,0,.6,2.076,1.625,3.159,1.607.758-.018,1.86-1.444,2.076-2.4.253-1.174-.253-2.509-.433-3.791Q32.262,57.219,39,55.522a32.01,32.01,0,0,1,4.116-1.174c4.152-.433,4.459-3.123,4.243-6.788-5.037,1.083-9.857,2.112-15.111,3.232-.632-5.506-1.065-10.6-1.914-15.617a5.125,5.125,0,0,0-2.762-3.412c-2.473-.885-5.218-1.047-8.521-1.625,1.842,7.8,3.521,14.931,5.308,22.549-3.809.939-7.24,1.787-11.573,2.871Zm123.019.542c-2.329,2.925-5.272,5-5.506,7.33-.307,3.34,1.192,6.933,2.347,10.273.235.668,2.889,1.39,3.448.921A19.563,19.563,0,0,0,143.258,60.6c.09-1.264-1.535-2.654-2.365-3.99-.867,1.1-2.058,2.094-2.528,3.34-1.228,3.34-2.148,6.788-3.2,10.2-.4-.036-.794-.072-1.192-.126-.758-2.04-1.517-4.08-2.311-6.211,3.105-1.354,5.759-2.564,4.134-7.709ZM51.237,33.641c3.051,6.156,5.705,11.518,8.233,16.646,5.723-1.408,6.5-4.6,4.5-9.027-.469-1.029-.433-2.275-.939-3.268-.469-.921-1.228-2.094-2.094-2.329-2.834-.794-5.777-1.228-9.695-2Zm.307,16.826c-2.528,9.623.09,14.8,9.352,19.083a18.571,18.571,0,0,0-9.352-19.083ZM95.776,66.752c-3.015,6.427-5.561,11.843-8.07,17.223,5.633,2.744,5.326-2.943,7.294-5.4q4.1,5.94,6.86,5.633c-6.211-5.525-3.683-10.995.253-16.447-.56-.271-1.119-.542-1.661-.794l-4.423,4.947c-.072-1.643-.126-2.943-.235-5.181ZM112.1,87.622c-1.119-6.987-1.914-12.746-3.087-18.415-.181-.9-2.13-1.426-3.665-2.383-.758,6.77-1.372,12.313-2.094,18.83,3.557-4.586,3.5-4.568,5.8-.325.361.686,1.336,1.047,3.051,2.311ZM36.469,47.362C40.351,43.787,44.052,40.393,47.735,37c-.126-.4-.235-.812-.361-1.21-3.214,0-7.384-1.246-9.442.289C34.88,38.371,32.443,42.505,36.469,47.362ZM131.2,74.154c-1.011-1.408-1.787-3.629-3-3.882a4.937,4.937,0,0,0-4.3,2.148,59.475,59.475,0,0,0-3.9,12.1c-.253,1.21,1.246,3.448,2.509,4.1.812.415,3.394-.885,3.936-2,1.805-3.809,3.069-7.89,4.748-12.457Zm3.358,3.7c-.415-.072-.812-.144-1.228-.217-1.86,3.5-3.214,7.222-2.311,11.356.524,2.383,4.64,3.521,5.326,1.643,2.022-5.434,3.322-11.139,4.875-16.754,0,0-.505-.144-1.3-.379-1.643,5.091-3.322,10.219-4.983,15.346-.668-.162-1.354-.343-2.022-.506.542-3.5,1.083-6.987,1.625-10.489ZM112.223,68.16c1.083,6.554,2.094,12.62,2.961,17.8C117.441,80.87,120,75.129,122.6,69.3c-4.857-1.065-3.466,4.513-6.084,5.687-2.094-1.86.542-6.716-4.279-6.824Zm-76.1-8.792q2.672,7.077,8.63,5.29C42.571,59.494,39.267,57.472,36.126,59.368ZM138.853,8.113c-1.914-1.661-2.889-3.159-3.972-3.25-.921-.072-1.986,1.462-3,2.293.921,1.047,1.679,2.491,2.834,2.961.7.289,2.022-.921,4.134-2.022ZM105.778,56.605c.325,3.358.56,5.958.812,8.54.722-.235,1.932-.307,2.076-.722.794-2.546,2.6-5.434-2.871-7.817ZM101.3,1.938c-1.426,1.9-2.762,2.943-2.925,4.152-.09.722,1.661,2.329,2.6,2.329A3.549,3.549,0,0,0,103.5,6c.144-.975-1.083-2.13-2.2-4.062Zm10.76,59.2c-.469.235-.957.451-1.426.686.415,1.246.469,3.159,1.318,3.611,2.112,1.155,4.243.867,5.29-2.185-1.86-.758-3.521-1.444-5.181-2.13Zm7.167,2.834c-.271.487-.542.975-.812,1.48,1.48.74,2.979,2.058,4.459,2.04.993,0,1.986-1.878,3.557-3.521h-7.2Zm17.3-50.948c-.217-.108-.433-.235-.668-.343L130.3,21.96c.433.235.885.469,1.318.7,1.643-3.214,3.268-6.409,4.911-9.623Z" transform="translate(0 0)"/><path d="M44.019,43.439c-2.329,1.083-3.448,1.589-4.513,2.076-.307-.271-.614-.415-.668-.614C37.448,38.077,37.5,38.167,44,33.942c.921-.6,1.354-2.564,1.336-3.882-.054-2.943-.542-5.868-.939-9.406,2.925.451,5.109.776,7.8,1.192a39.185,39.185,0,0,0,.036,5.055c.361,2.69,1.264,5.326,1.426,8.016a54.164,54.164,0,0,1-.614,7.673H48.425c4.893,1.986,2.257,6.03,2.69,9.316,3.647,1.246,6.373,1.083,8.269-3.105,1.192-2.618,3.575-4.712,5.687-7.366-1.7-.469-3.25-.885-4.64-1.282-1.48,1.354-2.8,2.564-4.1,3.755-.325-.289-.65-.56-.975-.849.614-4.044,1.192-8.106,1.878-12.15.668-3.936,1.462-7.853,2.329-12.439,3.141,1.553,5.976,2.961,9.117,4.532-1.318,2.221-2.437,4.1-3.882,6.517,4.423.578,8.323,1.065,12.2,1.571-.524,5.362-1.065,5.813-5.831,4.983a33.45,33.45,0,0,0-9.46-.74c3.809,1.1,7.6,2.185,11.843,3.412-4.441,4.838-8.612,9.37-12.764,13.92.343.487.686.975,1.011,1.48,1.841-.812,3.7-1.643,5.9-2.618-.975,2.491-1.878,4.8-2.853,7.294-1.553-.506-2.871-.939-4.965-1.625-.542,2.78-1.48,5.344-1.408,7.89.126,4.026-1.625,5.4-5.344,5.145-1.246-.09-2.509,0-5.019,0,3-4.784,5.561-8.846,8.178-13.017-5.615-2.528-6.445-2.094-7.691,2.961-.65,2.636-1.751,5.163-2.221,7.817-.74,4.17-3.25,4.441-7.51,3.34,1.462-2.419,3.033-4.369,3.918-6.59,1.643-4.189,2.925-8.521,4.243-12.836.108-.325-1.029-1.426-1.174-1.354-.794.4-1.805.9-2.112,1.643-1.7,4.08-3.214,8.251-4.8,12.385a46.742,46.742,0,0,0-2,5.2c-.867,3.394-3.177,3.954-6.1,3.719.812-5.091,1.589-9.948,2.419-15.075.776.506,1.643,1.065,2.943,1.9,2.473-5.326,4.838-10.453,7.817-16.844Z" transform="translate(24.838 14.882)" fill="#ffd900"/><path d="M79.2,12.908c16.357,1.914,23.994,16.339,16.79,31.973-5.434-.072-10.453.524-14.479,5.236-1.336,1.553-5,1.661-7.565,1.535-11.825-.614-18.036-10.363-13.938-21.466A25.466,25.466,0,0,1,75.846,14.371c1.192-.433,2.329-1.047,3.484-1.571l-.126.108Zm1.823,14.768c1.408.108,2.708.217,4.062.325v7.474c-1.968-.867-3.755-1.661-5.8-2.564,2.058,3.99,5.109,5.254,8.07,3.665C90.2,35.06,91.535,30.673,90,28c-1.607-2.78-5.145-2.943-8.955-.325ZM62.143,34.9c1.408,1.155,2.383,2.329,2.708,2.166,1.805-.867,4.08-1.715,4.947-3.25.975-1.733.632-4.207.867-6.373-1.246.108-3.394-.108-3.575.415a41.717,41.717,0,0,0-1.5,7.041Zm8.07,9.153c5.47,3.159,13.2,1.733,16.375-2.961C81.353,42.029,75.359,43.113,70.213,44.051Z" transform="translate(47.318 10.315)" fill="#ffd900"/><path d="M39.55,53.219c1.643-5.886,2.979-10.634,4.315-15.4.4-.126.812-.253,1.21-.379,1.011,2.564,2.672,5.091,2.853,7.709.235,3.466-.578,7.041-1.1,10.543-.614,4.062-4.243,4.55-7.149,4.838-1.354.144-3.123-2.076-4.405-3.484a40.838,40.838,0,0,1-3.394-5.091c-1.3,3.286-1.986,6.265-3.575,8.63a16.339,16.339,0,0,1-5.922,5.29c-4.5,2.239-10.634.7-12.89-2.636C7,59.52,7.594,52.858,11.042,49.283c5.163-5.344,11.861-7.258,19.029-7.637,1.047-.054,2.491,1.155,3.232,2.148,2.022,2.726,3.773,5.651,6.265,9.442ZM11.566,59.267C15,54.122,18.083,49.5,21.08,45.023,14.581,46.16,9.075,53.382,11.566,59.267Z" transform="translate(6.416 30.16)" fill="#ffd900"/><path d="M7.08,42.12c4.333-1.083,7.745-1.914,11.573-2.871C16.865,31.631,15.186,24.5,13.345,16.7c3.3.578,6.048.74,8.521,1.625a5.174,5.174,0,0,1,2.762,3.412c.849,5.019,1.282,10.11,1.914,15.617,5.272-1.119,10.074-2.148,15.111-3.232.217,3.665-.108,6.355-4.243,6.788a32.009,32.009,0,0,0-4.116,1.174Q26.56,43.8,27.589,50.569c.2,1.264.7,2.618.433,3.791-.217.957-1.318,2.383-2.076,2.4-1.083.036-3.159-1.011-3.159-1.607-.036-7.294-4.225-10.237-10.85-11.067-1.354-.162-2.618-1.029-4.857-1.95Z" transform="translate(5.702 13.456)" fill="#ffd900"/><path d="M77.694,31.08c1.643,5.145-1.029,6.355-4.134,7.709.794,2.13,1.553,4.17,2.311,6.211.4.036.794.072,1.192.126,1.047-3.412,1.95-6.86,3.2-10.2.469-1.246,1.661-2.239,2.528-3.34.83,1.336,2.473,2.726,2.365,3.99a19.563,19.563,0,0,1-7.167,14.046c-.578.469-3.232-.253-3.448-.921-1.137-3.34-2.654-6.933-2.347-10.273.217-2.329,3.177-4.405,5.506-7.33Z" transform="translate(58.107 25.038)" fill="#ffd900"/><path d="M28.38,18.638c3.918.776,6.86,1.21,9.695,2,.867.253,1.625,1.408,2.094,2.329.506.993.487,2.239.939,3.268,2,4.441,1.246,7.619-4.5,9.027-2.528-5.127-5.181-10.471-8.233-16.646Z" transform="translate(22.857 15.003)" fill="#ffd900"/><path d="M28.956,27.96a18.543,18.543,0,0,1,9.352,19.083C29.046,42.764,26.428,37.583,28.956,27.96Z" transform="translate(22.588 22.525)" fill="#ffd900"/><path d="M56.658,36.98c.108,2.239.162,3.539.235,5.181l4.423-4.947c.56.271,1.119.542,1.661.794-3.936,5.434-6.463,10.923-.253,16.447q-2.744.307-6.86-5.633c-1.968,2.455-1.661,8.142-7.294,5.4,2.528-5.38,5.073-10.8,8.07-17.223Z" transform="translate(39.118 29.79)" fill="#ffd900"/><path d="M66.036,57.826c-1.715-1.264-2.69-1.625-3.051-2.311-2.275-4.243-2.239-4.261-5.8.325.722-6.5,1.336-12.06,2.094-18.83,1.553.957,3.484,1.5,3.665,2.383,1.174,5.687,1.968,11.446,3.087,18.415Z" transform="translate(46.06 29.814)" fill="#ffd900"/><path d="M21.142,31.605c-4.026-4.857-1.589-8.991,1.462-11.284,2.058-1.535,6.229-.289,9.442-.289.126.4.235.812.361,1.21C28.706,24.637,25.023,28.031,21.142,31.605Z" transform="translate(15.327 15.756)" fill="#ffd900"/><path d="M77.666,42.819c-1.679,4.55-2.943,8.63-4.748,12.457-.542,1.119-3.123,2.419-3.936,2-1.264-.65-2.762-2.871-2.509-4.1a61.8,61.8,0,0,1,3.9-12.1,5,5,0,0,1,4.3-2.148c1.192.253,1.986,2.473,3,3.882Zm-8.2,10.941c.65.072,1.318.162,1.968.235,1.264-3.773,2.582-7.528,3.7-11.338.162-.524-.686-1.336-1.065-2-.794.469-2,.758-2.293,1.444a72.058,72.058,0,0,0-3.051,8.774c-.235.83.469,1.914.74,2.889Z" transform="translate(53.514 31.335)" fill="#ffd900"/><path d="M76.222,45.061c-.542,3.5-1.083,6.987-1.625,10.489.668.162,1.354.343,2.022.506C78.28,50.929,79.941,45.8,81.6,40.71c.794.235,1.3.379,1.3.379-1.553,5.615-2.853,11.32-4.875,16.754-.7,1.878-4.8.722-5.326-1.643-.921-4.134.451-7.853,2.311-11.356.415.072.812.144,1.228.217Z" transform="translate(58.316 32.794)" fill="#ffd900"/><path d="M62.168,37.74c4.838.108,2.2,4.965,4.279,6.824,2.618-1.174,1.246-6.752,6.084-5.687-2.6,5.831-5.145,11.573-7.42,16.664-.867-5.163-1.878-11.248-2.961-17.8Z" transform="translate(50.055 30.402)" fill="#ffd900"/><path d="M77.286,19.8c-2.383.361-4.766.7-6.879,1.011-3.069-5.488-6.1-10.9-9.117-16.339.072-.108.144-.235.217-.343,3.882,4.64,7.763,9.28,11.771,14.082.181-.957.379-1.95.6-3,.415.74.83,1.462,1.48,2.6.849-1.228,1.517-2.185,2.491-3.575-.271,2.2-.469,3.936-.668,5.651l.144-.108Z" transform="translate(49.362 3.333)" fill="#ffd900"/><path d="M20.01,33.182c3.141-1.9,6.445.126,8.63,5.29Q22.682,40.259,20.01,33.182Z" transform="translate(16.116 26.168)" fill="#ffd900"/><path d="M80.019,5.933c-2.112,1.083-3.43,2.311-4.134,2.022-1.155-.487-1.914-1.932-2.834-2.961,1.011-.83,2.076-2.383,3-2.293,1.1.09,2.076,1.589,3.972,3.25Z" transform="translate(58.834 2.179)" fill="#ffd900"/><path d="M58.588,31.35c5.47,2.4,3.665,5.272,2.871,7.817-.126.415-1.354.487-2.076.722-.253-2.582-.487-5.163-.812-8.54Z" transform="translate(47.172 25.255)" fill="#ffd900"/><path d="M57.416,1.07c1.119,1.932,2.347,3.105,2.2,4.062a3.547,3.547,0,0,1-2.528,2.419c-.939,0-2.69-1.625-2.6-2.329.162-1.21,1.5-2.257,2.925-4.152Z" transform="translate(43.884 0.868)" fill="#ffd900"/><path d="M62.706,33.87c1.661.686,3.322,1.372,5.181,2.13-1.029,3.051-3.177,3.34-5.29,2.185-.849-.469-.9-2.365-1.318-3.611.469-.235.957-.451,1.426-.686Z" transform="translate(49.354 27.285)" fill="#ffd900"/><path d="M66.4,35.43h7.2c-1.571,1.643-2.564,3.521-3.557,3.521-1.48,0-2.979-1.3-4.459-2.04.271-.487.542-.975.812-1.48Z" transform="translate(52.826 28.541)" fill="#ffd900"/><path d="M78.409,7.371c-1.643,3.214-3.268,6.409-4.911,9.623-.433-.235-.885-.469-1.318-.7l5.561-9.28c.217.108.433.235.668.343Z" transform="translate(58.133 5.652)" fill="#ffd900"/><path d="M71.871,21.885c3.809-2.618,7.348-2.473,8.955.325,1.535,2.672.181,7.059-2.636,8.576-2.961,1.589-6.012.307-8.07-3.665,2.058.9,3.845,1.7,5.8,2.564V22.21c-1.354-.108-2.654-.217-4.062-.325Z" transform="translate(56.474 16.125)"/><path d="M60.63,28.376h3.448a45.589,45.589,0,0,1,1.5-7.041c.2-.506,2.329-.289,3.575-.415-.235,2.148.126,4.64-.867,6.373-.867,1.553-3.159,2.383-4.947,3.25C63.013,30.705,62.02,29.532,60.63,28.376Z" transform="translate(48.831 16.855)"/><path d="M65.1,31.441c5.163-.939,11.157-2,16.375-2.961C78.3,33.174,70.552,34.6,65.1,31.441Z" transform="translate(52.431 22.944)"/><path d="M10.236,55.885C7.726,50,13.251,42.759,19.75,41.64c-2.979,4.477-6.084,9.117-9.514,14.245Z" transform="translate(7.746 33.543)"/><path d="M68.469,52.977c-.271-.975-.957-2.058-.74-2.889a75.262,75.262,0,0,1,3.051-8.774c.289-.686,1.5-.975,2.293-1.444.379.686,1.228,1.5,1.065,2-1.119,3.809-2.437,7.565-3.7,11.338C69.787,53.14,69.119,53.049,68.469,52.977Z" transform="translate(54.514 32.117)"/></g></svg>