<svg xmlns="http://www.w3.org/2000/svg" width="48" height="48" viewBox="0 0 48 48"><g fill="#fff" stroke="#3e3e3e" stroke-width="2"><rect width="48" height="48" rx="24" stroke="none"/><rect x="1" y="1" width="46" height="46" rx="23" fill="none"/></g><g transform="translate(14 14)"><rect width="20" height="20" fill="rgba(253,73,198,0.35)" opacity="0"/><g transform="translate(0.833 2.491)"><path d="M19.167,2.5A9.094,9.094,0,0,1,16.55,3.775,3.733,3.733,0,0,0,10,6.275v.833A8.884,8.884,0,0,1,2.5,3.333s-3.333,7.5,4.167,10.834A9.7,9.7,0,0,1,.833,15.833C8.333,20,17.5,15.833,17.5,6.25a3.739,3.739,0,0,0-.067-.692A6.427,6.427,0,0,0,19.167,2.5Z" transform="translate(-0.833 -2.491)" fill="none" stroke="#3e3e3e" stroke-linecap="round" stroke-linejoin="round" stroke-width="1.667"/></g></g></svg>