<svg xmlns="http://www.w3.org/2000/svg" width="222.242" height="100.368" viewBox="0 0 222.242 100.368"><g transform="translate(0.001)"><path d="M136.887,187.938a20.53,20.53,0,1,1-20.567-20.5,20.623,20.623,0,0,1,20.567,20.5Zm-6.843.215c.039-9.671-8.3-16.62-17.121-14.271-5.908,1.573-10.133,7.238-10.313,13.83-.176,6.409,3.975,12.423,9.8,14.211,8.843,2.712,17.593-4.123,17.632-13.77Z" transform="translate(-62.028 -108.379)"/><path d="M220.655,187.957a20.494,20.494,0,1,1,20.447,20.51,20.25,20.25,0,0,1-20.447-20.514Zm34.234-.106c-.046-7.936-6.342-14.521-13.816-14.451-7.643.071-13.735,6.652-13.671,14.761.06,7.9,6.211,14.338,13.717,14.359C248.706,202.542,254.935,195.9,254.89,187.851Z" transform="translate(-142.826 -108.367)"/><path d="M30.922,167.128v2.141c0,6.931.046,13.865-.018,20.8a56.6,56.6,0,0,1-.5,7.375c-.871,6.176-4.345,9.781-10.514,10.546a30.723,30.723,0,0,1-8.92-.1C4,206.675.56,202.46.327,194.912c-.268-8.68-.2-17.375-.328-26.066-.018-1.333.494-1.757,1.771-1.647,1.622.138,3.841-.459,4.719.388.857.825.427,3.065.434,4.688.032,6.285.007,12.571.018,18.86a34.923,34.923,0,0,0,.131,3.7c.413,3.95,2.473,6.046,6.419,6.448a22.315,22.315,0,0,0,4.395.025c3.972-.388,5.94-2.455,5.993-6.451.1-8.165.092-16.331.12-24.5.011-2.695,0-2.691,2.705-2.892,1.326-.1,2.649-.2,4.218-.328Z" transform="translate(0 -108.176)"/><path d="M565,208.882c-2.356,0-4.412.074-6.458-.053a2.039,2.039,0,0,1-1.421-1.108c-.758-1.965-1.379-3.982-1.972-6.007-.247-.85-.575-1.312-1.559-1.231-4.441.367-8.888.653-13.326,1.055a1.781,1.781,0,0,0-1.122,1.048c-.621,1.644-1.026,3.375-1.693,5a2.246,2.246,0,0,1-1.52,1.234c-2.042.145-4.1.06-6.4.06.2-.705.325-1.252.515-1.774,4.476-12.394,8.977-24.782,13.417-37.19a2.44,2.44,0,0,1,2.578-1.968c4.187-.123,4.187-.212,5.622,3.753q6.38,17.634,12.754,35.268c.194.536.335,1.093.582,1.908ZM552.83,194.527c-1.82-5.7-3.552-11.135-5.284-16.571-.2.011-.391.021-.589.028-1.809,5.682-3.619,11.361-5.523,17.343l11.4-.8Z" transform="translate(-342.758 -108.683)"/><path d="M422.727,208.9c1.887-5.252,3.637-10.148,5.4-15.036,2.9-8.042,5.841-16.07,8.7-24.126a2.238,2.238,0,0,1,2.374-1.749c4.328-.176,4.321-.233,5.774,3.788q6.254,17.3,12.514,34.594c.258.709.49,1.425.861,2.5-2.508,0-4.815.046-7.114-.053-.321-.014-.737-.677-.892-1.118-.656-1.88-1.3-3.767-1.809-5.689-.3-1.157-.79-1.626-2.053-1.51-4.2.388-8.416.628-12.617,1.048a2.3,2.3,0,0,0-1.5,1.263,39.007,39.007,0,0,0-1.517,4.684,1.6,1.6,0,0,1-1.834,1.425c-1.982-.081-3.972-.025-6.3-.025Zm18.094-31.039c-.173-.011-.346-.018-.515-.028-1.824,5.739-3.647,11.477-5.569,17.516,3.993-.282,7.583-.54,11.4-.808C444.313,188.813,442.567,183.339,440.821,177.861Z" transform="translate(-273.621 -108.698)"/><path d="M334.214,167.341c2.547,0,4.705-.081,6.853.056a2.539,2.539,0,0,1,1.541,1.175c2.832,4.391,5.6,8.821,8.395,13.237.342.54.695,1.072,1.178,1.82.4-.547.716-.921.977-1.33,2.892-4.557,5.8-9.111,8.645-13.7a2.253,2.253,0,0,1,2.243-1.291c1.926.085,3.855.025,6.123.025-.42.769-.691,1.312-1.009,1.831-4.148,6.751-8.345,13.477-12.419,20.274a8.019,8.019,0,0,0-1.072,3.753c-.12,4.92-.049,9.844-.049,14.941-2.264.176-4.391.346-6.762.529v-2.772a67.753,67.753,0,0,1,.049-7.573c.571-5.054-.973-9.283-3.813-13.435-3.8-5.559-7.128-11.439-10.885-17.548Z" transform="translate(-216.33 -108.297)"/><path d="M286.624.586,290.987,0c.314,2.868.624,5.58.906,8.3q1.058,10.243,2.1,20.486c.279,2.691.194,2.79-2.652,2.557-1.559-10.172-3.125-20.38-4.716-30.75Z" transform="translate(-185.526 0)"/><path d="M325.48,31.526c-1.016-.106-1.813-.187-2.85-.293,1.055-10.416,2.1-20.7,3.16-31.233,1.481.2,2.783.384,4.391.6-1.57,10.324-3.118,20.5-4.7,30.919Z" transform="translate(-208.835)"/><path d="M256.149,40.627c-.79.279-1.376.49-2.166.769-3.7-9.379-7.368-18.655-11.093-28.087l3.273-1.51c3.34,9.647,6.645,19.184,9.982,28.827Z" transform="translate(-157.22 -7.638)"/><path d="M363.473,13.374c-3.718,9.453-7.34,18.666-11.029,28.048-.741-.229-1.372-.427-2.194-.684,3.326-9.661,6.6-19.159,9.929-28.838,1.125.5,2.116.945,3.3,1.474Z" transform="translate(-226.713 -7.703)"/><path d="M380.1,63.309c-1.055-.3-1.7-.571-.977-1.711q7.18-11.269,14.313-22.563a2.6,2.6,0,0,1,.469-.406c.564.508,1.125,1.009,1.9,1.707Q387.942,51.839,380.1,63.309Z" transform="translate(-245.205 -25.005)"/><path d="M220.884,62.119c-.772,1.086-1.323,1.157-2.046.092-4.97-7.319-9.978-14.613-15.079-22.062.645-.589,1.266-1.157,2.032-1.859C210.888,46.335,215.893,54.24,220.884,62.119Z" transform="translate(-131.892 -24.785)"/></g></svg>