<svg xmlns="http://www.w3.org/2000/svg" width="448" height="448" viewBox="0 0 448 448"><path d="M186.8,170.1,282,224.2l-95.2,54.1V170.1ZM448,48V400a48.012,48.012,0,0,1-48,48H48A48.012,48.012,0,0,1,0,400V48A48.012,48.012,0,0,1,48,0H400A48.012,48.012,0,0,1,448,48ZM406,224.3s0-59.6-7.6-88.2a45.645,45.645,0,0,0-32.2-32.4C337.9,96,224,96,224,96s-113.9,0-142.2,7.7a45.645,45.645,0,0,0-32.2,32.4C42,164.6,42,224.3,42,224.3s0,59.6,7.6,88.2a44.988,44.988,0,0,0,32.2,31.9C110.1,352,224,352,224,352s113.9,0,142.2-7.7a44.988,44.988,0,0,0,32.2-31.9c7.6-28.5,7.6-88.1,7.6-88.1h0Z" fill="#ac27eb"/></svg>